<mxfile host="app.diagrams.net" modified="2024-07-23T02:12:34.221Z" agent="Mozilla/5.0 (X11; Linux x86_64) AppleWebKit/537.36 (KHTML, like Gecko) Chrome/126.0.0.0 Safari/537.36" version="24.7.3" etag="dUcvSSU-2DbMapbVa88c" type="github">
  <diagram name="Page-1" id="ri5_0hPhb2CSrGuOo_TA">
    <mxGraphModel>
      <root>
        <mxCell id="0" />
        <mxCell id="1" parent="0" />
      </root>
    </mxGraphModel>
  </diagram>
</mxfile>
